# xmcd
#
# Track frame offsets:
#	150
#	19835
#	36917
#	60707
#	79125
#	101060
#	124280
#	134442
#	156922
#	178375
#
# Disc length: 2740 seconds
#
# Revision: 1
# Processed by: cddbd v1.5.1PL0 Copyright (c) Steve Scherf et al.
# Submitted via: CDex 1.50Beta5
#
DISCID=8f0ab20a
DTITLE=浜田省吾 - J.BOY Disc 1
DYEAR=1999
DGENRE=
TTITLE0=NEW STYLE WAR,A
TTITLE1=BIG BOY BLUES
TTITLE2=AMERICA
TTITLE3=想い出のファイヤー・ストーム
TTITLE4=悲しみの岸辺
TTITLE5=勝利への道
TTITLE6=晩夏の鐘
TTITLE7=RICH MAN’S GIRL
TTITLE8=LONELY
TTITLE9=もうひとつの土曜日
EXTD=
EXTT0=
EXTT1=
EXTT2=
EXTT3=
EXTT4=
EXTT5=
EXTT6=
EXTT7=
EXTT8=
EXTT9=
PLAYORDER=
